<?xml version="1.0" encoding="UTF-8" standalone="no"?><svg xmlns:svg="http://www.w3.org/2000/svg" xmlns="http://www.w3.org/2000/svg" xmlns:xlink="http://www.w3.org/1999/xlink" version="1.0" width="256px" height="32px" viewBox="0 0 128 16" xml:space="preserve"><g><path fill="#ffbd6c" d="M8.069,8l-8.3-8.2h4.6l8.3,8.2-8.3,8.2h-4.6Zm12.8,0-8.3-8.2h4.6l8.3,8.2-8.3,8.2h-4.6Zm12.8,0-8.3-8.2h4.6l8.3,8.2-8.3,8.2h-4.6Zm12.8,0-8.3-8.2h4.6l8.3,8.2-8.3,8.2h-4.6Zm12.8,0-8.3-8.2h4.6l8.3,8.2-8.3,8.2h-4.6Zm12.8,0-8.3-8.2h4.6l8.3,8.2-8.3,8.2h-4.6Zm12.8,0-8.3-8.2h4.6l8.3,8.2-8.3,8.2h-4.6Zm12.8,0-8.3-8.2h4.6l8.3,8.2-8.3,8.2h-4.6Zm12.8,0-8.3-8.2h4.6l8.3,8.2-8.3,8.2h-4.6Zm12.8,0-8.3-8.2h4.6l8.3,8.2-8.3,8.2h-4.6Zm-128,0-8.3-8.2h4.6l8.3,8.2-8.3,8.2h-4.6Z"/><animateTransform attributeName="transform" type="translate" from="0 0" to="13 0" dur="500ms" repeatCount="indefinite"/></g></svg>
